<svg width="684" height="324" viewBox="0 0 684 324" fill="none" xmlns="http://www.w3.org/2000/svg">
<path fill-rule="evenodd" clip-rule="evenodd" d="M125.449 0.548553H278.74V45.8399H125.449V0.548553Z" fill="#CFE2F3"/>
<path fill-rule="evenodd" clip-rule="evenodd" d="M125.449 0.548553H278.74V45.8399H125.449V0.548553Z" stroke="black" stroke-miterlimit="10" stroke-linejoin="round"/>
<path d="M186 27.5938L191.234 14H193.172L198.734 27.5938H196.688L195.094 23.4688H189.406L187.922 27.5938H186ZM189.922 22.0156H194.531L193.125 18.2344C192.688 17.099 192.365 16.1615 192.156 15.4219C191.979 16.2969 191.734 17.1615 191.422 18.0156L189.922 22.0156ZM199.725 31.375V17.7344H201.256V19.0156C201.61 18.5156 202.011 18.1406 202.459 17.8906C202.918 17.6406 203.464 17.5156 204.1 17.5156C204.944 17.5156 205.688 17.7344 206.334 18.1719C206.98 18.599 207.464 19.2083 207.787 20C208.121 20.7917 208.287 21.6562 208.287 22.5938C208.287 23.6042 208.105 24.5156 207.74 25.3281C207.376 26.1302 206.85 26.7448 206.162 27.1719C205.475 27.599 204.751 27.8125 203.99 27.8125C203.428 27.8125 202.923 27.6979 202.475 27.4688C202.037 27.2292 201.678 26.9323 201.397 26.5781V31.375H199.725ZM201.24 22.7188C201.24 23.9896 201.496 24.9271 202.006 25.5312C202.527 26.1354 203.152 26.4375 203.881 26.4375C204.621 26.4375 205.251 26.125 205.772 25.5C206.303 24.875 206.569 23.901 206.569 22.5781C206.569 21.3281 206.308 20.3906 205.787 19.7656C205.277 19.1406 204.662 18.8281 203.944 18.8281C203.235 18.8281 202.605 19.1615 202.053 19.8281C201.511 20.4948 201.24 21.4583 201.24 22.7188ZM210.101 31.375V17.7344H211.632V19.0156C211.986 18.5156 212.387 18.1406 212.835 17.8906C213.293 17.6406 213.84 17.5156 214.476 17.5156C215.319 17.5156 216.064 17.7344 216.71 18.1719C217.356 18.599 217.84 19.2083 218.163 20C218.496 20.7917 218.663 21.6562 218.663 22.5938C218.663 23.6042 218.481 24.5156 218.116 25.3281C217.752 26.1302 217.226 26.7448 216.538 27.1719C215.851 27.599 215.127 27.8125 214.366 27.8125C213.804 27.8125 213.298 27.6979 212.851 27.4688C212.413 27.2292 212.054 26.9323 211.772 26.5781V31.375H210.101ZM211.616 22.7188C211.616 23.9896 211.871 24.9271 212.382 25.5312C212.903 26.1354 213.528 26.4375 214.257 26.4375C214.996 26.4375 215.627 26.125 216.147 25.5C216.679 24.875 216.944 23.901 216.944 22.5781C216.944 21.3281 216.684 20.3906 216.163 19.7656C215.653 19.1406 215.038 18.8281 214.319 18.8281C213.611 18.8281 212.981 19.1615 212.429 19.8281C211.887 20.4948 211.616 21.4583 211.616 22.7188Z" fill="black"/>
<path fill-rule="evenodd" clip-rule="evenodd" d="M90.7402 277.514H244.032V322.806H90.7402V277.514Z" fill="#0087FF"/>
<path fill-rule="evenodd" clip-rule="evenodd" d="M90.7402 277.514H244.032V322.806H90.7402V277.514Z" stroke="black" stroke-miterlimit="10" stroke-linejoin="round"/>
<path d="M132.905 307.08V295.08H128.436V293.486H139.201V295.08H134.701V307.08H132.905ZM140.004 302.158C140.004 300.335 140.514 298.981 141.535 298.096C142.379 297.367 143.41 297.002 144.629 297.002C145.983 297.002 147.087 297.45 147.941 298.346C148.806 299.231 149.238 300.455 149.238 302.018C149.238 303.288 149.045 304.288 148.66 305.018C148.285 305.736 147.733 306.299 147.004 306.705C146.285 307.101 145.493 307.299 144.629 307.299C143.254 307.299 142.139 306.856 141.285 305.971C140.431 305.085 140.004 303.814 140.004 302.158ZM141.722 302.158C141.722 303.419 141.998 304.361 142.551 304.986C143.103 305.611 143.795 305.924 144.629 305.924C145.462 305.924 146.149 305.611 146.691 304.986C147.243 304.351 147.519 303.387 147.519 302.096C147.519 300.877 147.243 299.955 146.691 299.33C146.139 298.705 145.452 298.393 144.629 298.393C143.795 298.393 143.103 298.705 142.551 299.33C141.998 299.955 141.722 300.898 141.722 302.158ZM157.395 307.08V305.83C156.77 306.809 155.853 307.299 154.645 307.299C153.864 307.299 153.14 307.085 152.473 306.658C151.817 306.221 151.306 305.617 150.942 304.846C150.588 304.064 150.411 303.169 150.411 302.158C150.411 301.179 150.572 300.288 150.895 299.486C151.228 298.684 151.718 298.07 152.364 297.643C153.02 297.216 153.754 297.002 154.567 297.002C155.161 297.002 155.687 297.127 156.145 297.377C156.614 297.627 156.994 297.955 157.286 298.361V293.486H158.942V307.08H157.395ZM152.114 302.158C152.114 303.419 152.379 304.361 152.911 304.986C153.452 305.611 154.082 305.924 154.801 305.924C155.53 305.924 156.15 305.627 156.661 305.033C157.171 304.439 157.426 303.528 157.426 302.299C157.426 300.955 157.166 299.971 156.645 299.346C156.124 298.71 155.484 298.393 154.723 298.393C153.984 298.393 153.364 298.695 152.864 299.299C152.364 299.903 152.114 300.856 152.114 302.158ZM160.755 302.158C160.755 300.335 161.265 298.981 162.286 298.096C163.13 297.367 164.161 297.002 165.38 297.002C166.734 297.002 167.838 297.45 168.693 298.346C169.557 299.231 169.989 300.455 169.989 302.018C169.989 303.288 169.797 304.288 169.411 305.018C169.036 305.736 168.484 306.299 167.755 306.705C167.036 307.101 166.245 307.299 165.38 307.299C164.005 307.299 162.89 306.856 162.036 305.971C161.182 305.085 160.755 303.814 160.755 302.158ZM162.474 302.158C162.474 303.419 162.75 304.361 163.302 304.986C163.854 305.611 164.547 305.924 165.38 305.924C166.213 305.924 166.901 305.611 167.443 304.986C167.995 304.351 168.271 303.387 168.271 302.096C168.271 300.877 167.995 299.955 167.443 299.33C166.89 298.705 166.203 298.393 165.38 298.393C164.547 298.393 163.854 298.705 163.302 299.33C162.75 299.955 162.474 300.898 162.474 302.158ZM172.271 307.08V293.486H174.084V307.08H172.271ZM180.595 305.58L180.83 307.064C180.361 307.158 179.939 307.205 179.564 307.205C178.96 307.205 178.491 307.111 178.158 306.924C177.825 306.726 177.59 306.476 177.455 306.174C177.319 305.861 177.252 305.2 177.252 304.189V298.533H176.017V297.221H177.252V294.783L178.908 293.783V297.221H180.595V298.533H178.908V304.283C178.908 304.762 178.934 305.07 178.986 305.205C179.048 305.341 179.147 305.45 179.283 305.533C179.418 305.617 179.611 305.658 179.861 305.658C180.038 305.658 180.283 305.632 180.595 305.58ZM188.872 303.908L190.591 304.127C190.32 305.127 189.815 305.908 189.076 306.471C188.346 307.023 187.409 307.299 186.263 307.299C184.826 307.299 183.685 306.856 182.841 305.971C181.997 305.085 181.576 303.841 181.576 302.236C181.576 300.58 181.997 299.294 182.841 298.377C183.695 297.46 184.805 297.002 186.169 297.002C187.492 297.002 188.57 297.45 189.404 298.346C190.237 299.242 190.654 300.507 190.654 302.143C190.654 302.236 190.648 302.382 190.638 302.58H183.294C183.357 303.663 183.664 304.492 184.216 305.064C184.768 305.637 185.456 305.924 186.279 305.924C186.883 305.924 187.398 305.768 187.826 305.455C188.263 305.132 188.612 304.617 188.872 303.908ZM183.388 301.205H188.888C188.815 300.382 188.607 299.762 188.263 299.346C187.732 298.7 187.039 298.377 186.185 298.377C185.424 298.377 184.779 298.637 184.247 299.158C183.727 299.669 183.44 300.351 183.388 301.205ZM192.498 307.08V297.221H193.998V298.611C194.3 298.132 194.706 297.747 195.217 297.455C195.738 297.153 196.326 297.002 196.982 297.002C197.712 297.002 198.311 297.153 198.779 297.455C199.248 297.757 199.576 298.184 199.764 298.736C200.545 297.58 201.561 297.002 202.811 297.002C203.79 297.002 204.54 297.273 205.061 297.814C205.592 298.356 205.857 299.189 205.857 300.314V307.08H204.186V300.877C204.186 300.21 204.134 299.731 204.029 299.439C203.925 299.137 203.727 298.898 203.436 298.721C203.154 298.544 202.821 298.455 202.436 298.455C201.748 298.455 201.175 298.684 200.717 299.143C200.259 299.601 200.029 300.341 200.029 301.361V307.08H198.357V300.674C198.357 299.934 198.222 299.382 197.951 299.018C197.68 298.643 197.232 298.455 196.607 298.455C196.139 298.455 195.701 298.58 195.295 298.83C194.899 299.07 194.613 299.429 194.436 299.908C194.259 300.387 194.17 301.075 194.17 301.971V307.08H192.498Z" fill="black"/>
<path fill-rule="evenodd" clip-rule="evenodd" d="M0.934448 99.5171H154.226V144.808H0.934448V99.5171Z" fill="#CFE2F3"/>
<path fill-rule="evenodd" clip-rule="evenodd" d="M0.934448 99.5171H154.226V144.808H0.934448V99.5171Z" stroke="black" stroke-miterlimit="10" stroke-linejoin="round"/>
<path d="M40.5116 129.083V117.083H36.0428V115.489H46.8085V117.083H42.3085V129.083H40.5116ZM47.6107 124.161C47.6107 122.338 48.1211 120.984 49.142 120.098C49.9857 119.369 51.017 119.005 52.2357 119.005C53.5899 119.005 54.694 119.453 55.5482 120.348C56.4128 121.234 56.8451 122.458 56.8451 124.02C56.8451 125.291 56.6524 126.291 56.267 127.02C55.892 127.739 55.3399 128.301 54.6107 128.708C53.892 129.104 53.1003 129.301 52.2357 129.301C50.8607 129.301 49.7461 128.859 48.892 127.973C48.0378 127.088 47.6107 125.817 47.6107 124.161ZM49.3295 124.161C49.3295 125.421 49.6055 126.364 50.1576 126.989C50.7097 127.614 51.4024 127.926 52.2357 127.926C53.069 127.926 53.7565 127.614 54.2982 126.989C54.8503 126.354 55.1263 125.39 55.1263 124.098C55.1263 122.88 54.8503 121.958 54.2982 121.333C53.7461 120.708 53.0586 120.395 52.2357 120.395C51.4024 120.395 50.7097 120.708 50.1576 121.333C49.6055 121.958 49.3295 122.9 49.3295 124.161ZM65.002 129.083V127.833C64.377 128.812 63.4604 129.301 62.252 129.301C61.4708 129.301 60.7468 129.088 60.0802 128.661C59.4239 128.223 58.9135 127.619 58.5489 126.848C58.1947 126.067 58.0177 125.171 58.0177 124.161C58.0177 123.182 58.1791 122.291 58.502 121.489C58.8354 120.687 59.325 120.072 59.9708 119.645C60.627 119.218 61.3614 119.005 62.1739 119.005C62.7677 119.005 63.2937 119.13 63.752 119.38C64.2208 119.63 64.601 119.958 64.8927 120.364V115.489H66.5489V129.083H65.002ZM59.7208 124.161C59.7208 125.421 59.9864 126.364 60.5177 126.989C61.0593 127.614 61.6895 127.926 62.4083 127.926C63.1375 127.926 63.7572 127.63 64.2677 127.036C64.7781 126.442 65.0333 125.531 65.0333 124.301C65.0333 122.958 64.7729 121.973 64.252 121.348C63.7312 120.713 63.0906 120.395 62.3302 120.395C61.5906 120.395 60.9708 120.697 60.4708 121.301C59.9708 121.906 59.7208 122.859 59.7208 124.161ZM68.3621 124.161C68.3621 122.338 68.8726 120.984 69.8934 120.098C70.7371 119.369 71.7684 119.005 72.9871 119.005C74.3413 119.005 75.4455 119.453 76.2996 120.348C77.1642 121.234 77.5965 122.458 77.5965 124.02C77.5965 125.291 77.4038 126.291 77.0184 127.02C76.6434 127.739 76.0913 128.301 75.3621 128.708C74.6434 129.104 73.8517 129.301 72.9871 129.301C71.6121 129.301 70.4976 128.859 69.6434 127.973C68.7892 127.088 68.3621 125.817 68.3621 124.161ZM70.0809 124.161C70.0809 125.421 70.3569 126.364 70.909 126.989C71.4611 127.614 72.1538 127.926 72.9871 127.926C73.8205 127.926 74.508 127.614 75.0496 126.989C75.6017 126.354 75.8778 125.39 75.8778 124.098C75.8778 122.88 75.6017 121.958 75.0496 121.333C74.4976 120.708 73.8101 120.395 72.9871 120.395C72.1538 120.395 71.4611 120.708 70.909 121.333C70.3569 121.958 70.0809 122.9 70.0809 124.161ZM79.6753 129.083V115.489H88.8472V117.083H81.4722V121.301H87.8472V122.911H81.4722V129.083H79.6753ZM90.7745 117.395V115.489H92.4463V117.395H90.7745ZM90.7745 129.083V119.223H92.4463V129.083H90.7745ZM94.8724 129.083V115.489H96.5443V129.083H94.8724ZM102.705 127.583L102.939 129.067C102.47 129.161 102.048 129.208 101.673 129.208C101.069 129.208 100.601 129.114 100.267 128.926C99.9339 128.729 99.6995 128.479 99.5641 128.176C99.4287 127.864 99.361 127.203 99.361 126.192V120.536H98.1266V119.223H99.361V116.786L101.017 115.786V119.223H102.705V120.536H101.017V126.286C101.017 126.765 101.043 127.072 101.095 127.208C101.158 127.343 101.257 127.453 101.392 127.536C101.528 127.619 101.72 127.661 101.97 127.661C102.147 127.661 102.392 127.635 102.705 127.583ZM110.982 125.911L112.701 126.13C112.43 127.13 111.924 127.911 111.185 128.473C110.456 129.025 109.518 129.301 108.372 129.301C106.935 129.301 105.794 128.859 104.951 127.973C104.107 127.088 103.685 125.843 103.685 124.239C103.685 122.583 104.107 121.296 104.951 120.38C105.805 119.463 106.914 119.005 108.279 119.005C109.602 119.005 110.68 119.453 111.513 120.348C112.346 121.244 112.763 122.51 112.763 124.145C112.763 124.239 112.758 124.385 112.747 124.583H105.404C105.466 125.666 105.773 126.494 106.326 127.067C106.878 127.64 107.565 127.926 108.388 127.926C108.992 127.926 109.508 127.77 109.935 127.458C110.372 127.135 110.721 126.619 110.982 125.911ZM105.497 123.208H110.997C110.924 122.385 110.716 121.765 110.372 121.348C109.841 120.703 109.148 120.38 108.294 120.38C107.534 120.38 106.888 120.64 106.357 121.161C105.836 121.671 105.549 122.354 105.497 123.208ZM114.592 129.083V119.223H116.092V120.723C116.477 120.025 116.831 119.567 117.154 119.348C117.477 119.119 117.837 119.005 118.232 119.005C118.795 119.005 119.368 119.187 119.951 119.551L119.373 121.098C118.967 120.859 118.555 120.739 118.139 120.739C117.774 120.739 117.446 120.848 117.154 121.067C116.873 121.286 116.67 121.588 116.545 121.973C116.357 122.567 116.264 123.218 116.264 123.926V129.083H114.592Z" fill="black"/>
<path fill-rule="evenodd" clip-rule="evenodd" d="M296.546 277.514H449.837V322.806H296.546V277.514Z" fill="#CFE2F3"/>
<path fill-rule="evenodd" clip-rule="evenodd" d="M296.546 277.514H449.837V322.806H296.546V277.514Z" stroke="black" stroke-miterlimit="10" stroke-linejoin="round"/>
<path d="M338.71 307.08V295.08H334.242V293.486H345.007V295.08H340.507V307.08H338.71ZM345.809 302.158C345.809 300.335 346.32 298.981 347.341 298.096C348.184 297.367 349.216 297.002 350.434 297.002C351.789 297.002 352.893 297.45 353.747 298.346C354.611 299.231 355.044 300.455 355.044 302.018C355.044 303.288 354.851 304.288 354.466 305.018C354.091 305.736 353.539 306.299 352.809 306.705C352.091 307.101 351.299 307.299 350.434 307.299C349.059 307.299 347.945 306.856 347.091 305.971C346.236 305.085 345.809 303.814 345.809 302.158ZM347.528 302.158C347.528 303.419 347.804 304.361 348.356 304.986C348.908 305.611 349.601 305.924 350.434 305.924C351.268 305.924 351.955 305.611 352.497 304.986C353.049 304.351 353.325 303.387 353.325 302.096C353.325 300.877 353.049 299.955 352.497 299.33C351.945 298.705 351.257 298.393 350.434 298.393C349.601 298.393 348.908 298.705 348.356 299.33C347.804 299.955 347.528 300.898 347.528 302.158ZM363.201 307.08V305.83C362.576 306.809 361.659 307.299 360.451 307.299C359.67 307.299 358.946 307.085 358.279 306.658C357.623 306.221 357.112 305.617 356.748 304.846C356.393 304.064 356.216 303.169 356.216 302.158C356.216 301.179 356.378 300.288 356.701 299.486C357.034 298.684 357.524 298.07 358.17 297.643C358.826 297.216 359.56 297.002 360.373 297.002C360.966 297.002 361.492 297.127 361.951 297.377C362.42 297.627 362.8 297.955 363.091 298.361V293.486H364.748V307.08H363.201ZM357.92 302.158C357.92 303.419 358.185 304.361 358.716 304.986C359.258 305.611 359.888 305.924 360.607 305.924C361.336 305.924 361.956 305.627 362.466 305.033C362.977 304.439 363.232 303.528 363.232 302.299C363.232 300.955 362.972 299.971 362.451 299.346C361.93 298.71 361.289 298.393 360.529 298.393C359.789 298.393 359.17 298.695 358.67 299.299C358.17 299.903 357.92 300.856 357.92 302.158ZM366.561 302.158C366.561 300.335 367.071 298.981 368.092 298.096C368.936 297.367 369.967 297.002 371.186 297.002C372.54 297.002 373.644 297.45 374.498 298.346C375.363 299.231 375.795 300.455 375.795 302.018C375.795 303.288 375.603 304.288 375.217 305.018C374.842 305.736 374.29 306.299 373.561 306.705C372.842 307.101 372.05 307.299 371.186 307.299C369.811 307.299 368.696 306.856 367.842 305.971C366.988 305.085 366.561 303.814 366.561 302.158ZM368.28 302.158C368.28 303.419 368.556 304.361 369.108 304.986C369.66 305.611 370.353 305.924 371.186 305.924C372.019 305.924 372.707 305.611 373.248 304.986C373.8 304.351 374.077 303.387 374.077 302.096C374.077 300.877 373.8 299.955 373.248 299.33C372.696 298.705 372.009 298.393 371.186 298.393C370.353 298.393 369.66 298.705 369.108 299.33C368.556 299.955 368.28 300.898 368.28 302.158ZM378.077 307.08V293.486H379.89V307.08H378.077ZM386.401 305.58L386.636 307.064C386.167 307.158 385.745 307.205 385.37 307.205C384.766 307.205 384.297 307.111 383.964 306.924C383.63 306.726 383.396 306.476 383.261 306.174C383.125 305.861 383.057 305.2 383.057 304.189V298.533H381.823V297.221H383.057V294.783L384.714 293.783V297.221H386.401V298.533H384.714V304.283C384.714 304.762 384.74 305.07 384.792 305.205C384.854 305.341 384.953 305.45 385.089 305.533C385.224 305.617 385.417 305.658 385.667 305.658C385.844 305.658 386.089 305.632 386.401 305.58ZM394.678 303.908L396.397 304.127C396.126 305.127 395.621 305.908 394.881 306.471C394.152 307.023 393.215 307.299 392.069 307.299C390.631 307.299 389.491 306.856 388.647 305.971C387.803 305.085 387.381 303.841 387.381 302.236C387.381 300.58 387.803 299.294 388.647 298.377C389.501 297.46 390.611 297.002 391.975 297.002C393.298 297.002 394.376 297.45 395.209 298.346C396.043 299.242 396.459 300.507 396.459 302.143C396.459 302.236 396.454 302.382 396.444 302.58H389.1C389.163 303.663 389.47 304.492 390.022 305.064C390.574 305.637 391.262 305.924 392.084 305.924C392.689 305.924 393.204 305.768 393.631 305.455C394.069 305.132 394.418 304.617 394.678 303.908ZM389.194 301.205H394.694C394.621 300.382 394.413 299.762 394.069 299.346C393.538 298.7 392.845 298.377 391.991 298.377C391.23 298.377 390.584 298.637 390.053 299.158C389.532 299.669 389.246 300.351 389.194 301.205ZM398.304 307.08V297.221H399.804V298.611C400.106 298.132 400.512 297.747 401.023 297.455C401.544 297.153 402.132 297.002 402.788 297.002C403.517 297.002 404.116 297.153 404.585 297.455C405.054 297.757 405.382 298.184 405.57 298.736C406.351 297.58 407.366 297.002 408.616 297.002C409.596 297.002 410.346 297.273 410.866 297.814C411.398 298.356 411.663 299.189 411.663 300.314V307.08H409.991V300.877C409.991 300.21 409.939 299.731 409.835 299.439C409.731 299.137 409.533 298.898 409.241 298.721C408.96 298.544 408.627 298.455 408.241 298.455C407.554 298.455 406.981 298.684 406.523 299.143C406.064 299.601 405.835 300.341 405.835 301.361V307.08H404.163V300.674C404.163 299.934 404.028 299.382 403.757 299.018C403.486 298.643 403.038 298.455 402.413 298.455C401.945 298.455 401.507 298.58 401.101 298.83C400.705 299.07 400.419 299.429 400.241 299.908C400.064 300.387 399.976 301.075 399.976 301.971V307.08H398.304Z" fill="black"/>
<path fill-rule="evenodd" clip-rule="evenodd" d="M244.032 99.5171H397.323V144.808H244.032V99.5171Z" fill="#CFE2F3"/>
<path fill-rule="evenodd" clip-rule="evenodd" d="M244.032 99.5171H397.323V144.808H244.032V99.5171Z" stroke="black" stroke-miterlimit="10" stroke-linejoin="round"/>
<path d="M289.821 129.083V117.083H285.353V115.489H296.118V117.083H291.618V129.083H289.821ZM296.921 124.161C296.921 122.338 297.431 120.984 298.452 120.098C299.296 119.369 300.327 119.005 301.546 119.005C302.9 119.005 304.004 119.453 304.858 120.348C305.723 121.234 306.155 122.458 306.155 124.02C306.155 125.291 305.962 126.291 305.577 127.02C305.202 127.739 304.65 128.301 303.921 128.708C303.202 129.104 302.41 129.301 301.546 129.301C300.171 129.301 299.056 128.859 298.202 127.973C297.348 127.088 296.921 125.817 296.921 124.161ZM298.639 124.161C298.639 125.421 298.915 126.364 299.467 126.989C300.02 127.614 300.712 127.926 301.546 127.926C302.379 127.926 303.066 127.614 303.608 126.989C304.16 126.354 304.436 125.39 304.436 124.098C304.436 122.88 304.16 121.958 303.608 121.333C303.056 120.708 302.369 120.395 301.546 120.395C300.712 120.395 300.02 120.708 299.467 121.333C298.915 121.958 298.639 122.9 298.639 124.161ZM314.312 129.083V127.833C313.687 128.812 312.77 129.301 311.562 129.301C310.781 129.301 310.057 129.088 309.39 128.661C308.734 128.223 308.223 127.619 307.859 126.848C307.505 126.067 307.328 125.171 307.328 124.161C307.328 123.182 307.489 122.291 307.812 121.489C308.145 120.687 308.635 120.072 309.281 119.645C309.937 119.218 310.671 119.005 311.484 119.005C312.078 119.005 312.604 119.13 313.062 119.38C313.531 119.63 313.911 119.958 314.203 120.364V115.489H315.859V129.083H314.312ZM309.031 124.161C309.031 125.421 309.296 126.364 309.828 126.989C310.369 127.614 310.999 127.926 311.718 127.926C312.447 127.926 313.067 127.63 313.578 127.036C314.088 126.442 314.343 125.531 314.343 124.301C314.343 122.958 314.083 121.973 313.562 121.348C313.041 120.713 312.4 120.395 311.64 120.395C310.9 120.395 310.281 120.697 309.781 121.301C309.281 121.906 309.031 122.859 309.031 124.161ZM317.672 124.161C317.672 122.338 318.182 120.984 319.203 120.098C320.047 119.369 321.078 119.005 322.297 119.005C323.651 119.005 324.755 119.453 325.61 120.348C326.474 121.234 326.906 122.458 326.906 124.02C326.906 125.291 326.714 126.291 326.328 127.02C325.953 127.739 325.401 128.301 324.672 128.708C323.953 129.104 323.162 129.301 322.297 129.301C320.922 129.301 319.807 128.859 318.953 127.973C318.099 127.088 317.672 125.817 317.672 124.161ZM319.391 124.161C319.391 125.421 319.667 126.364 320.219 126.989C320.771 127.614 321.464 127.926 322.297 127.926C323.13 127.926 323.818 127.614 324.36 126.989C324.912 126.354 325.188 125.39 325.188 124.098C325.188 122.88 324.912 121.958 324.36 121.333C323.807 120.708 323.12 120.395 322.297 120.395C321.464 120.395 320.771 120.708 320.219 121.333C319.667 121.958 319.391 122.9 319.391 124.161ZM328.813 129.083V115.489H330.61V127.473H337.313V129.083H328.813ZM339.064 117.395V115.489H340.736V117.395H339.064ZM339.064 129.083V119.223H340.736V129.083H339.064ZM342.521 126.145L344.178 125.88C344.271 126.546 344.527 127.057 344.943 127.411C345.37 127.755 345.964 127.926 346.725 127.926C347.495 127.926 348.063 127.77 348.428 127.458C348.803 127.145 348.99 126.781 348.99 126.364C348.99 125.989 348.829 125.692 348.506 125.473C348.277 125.328 347.709 125.14 346.803 124.911C345.574 124.598 344.719 124.333 344.24 124.114C343.771 123.885 343.412 123.572 343.162 123.176C342.922 122.77 342.803 122.328 342.803 121.848C342.803 121.411 342.902 121.005 343.1 120.63C343.308 120.255 343.584 119.942 343.928 119.692C344.188 119.505 344.542 119.343 344.99 119.208C345.438 119.072 345.917 119.005 346.428 119.005C347.209 119.005 347.891 119.119 348.475 119.348C349.058 119.567 349.485 119.869 349.756 120.255C350.037 120.63 350.23 121.135 350.334 121.77L348.709 121.989C348.636 121.489 348.417 121.098 348.053 120.817C347.699 120.525 347.199 120.38 346.553 120.38C345.782 120.38 345.235 120.51 344.912 120.77C344.589 121.02 344.428 121.312 344.428 121.645C344.428 121.864 344.495 122.062 344.631 122.239C344.766 122.416 344.98 122.562 345.271 122.676C345.438 122.739 345.928 122.885 346.74 123.114C347.917 123.426 348.74 123.682 349.209 123.88C349.678 124.078 350.042 124.369 350.303 124.755C350.574 125.14 350.709 125.619 350.709 126.192C350.709 126.744 350.547 127.27 350.225 127.77C349.902 128.26 349.433 128.64 348.818 128.911C348.204 129.171 347.511 129.301 346.74 129.301C345.459 129.301 344.48 129.036 343.803 128.505C343.136 127.973 342.709 127.187 342.521 126.145ZM356.178 127.583L356.412 129.067C355.943 129.161 355.521 129.208 355.146 129.208C354.542 129.208 354.074 129.114 353.74 128.926C353.407 128.729 353.172 128.479 353.037 128.176C352.902 127.864 352.834 127.203 352.834 126.192V120.536H351.6V119.223H352.834V116.786L354.49 115.786V119.223H356.178V120.536H354.49V126.286C354.49 126.765 354.516 127.072 354.568 127.208C354.631 127.343 354.73 127.453 354.865 127.536C355.001 127.619 355.193 127.661 355.443 127.661C355.62 127.661 355.865 127.635 356.178 127.583Z" fill="black"/>
<path d="M202.095 45.8399C202.095 59.2591 170.969 65.9696 139.843 72.6783C108.717 79.387 77.5906 86.0937 77.5906 99.5092" stroke="black" stroke-miterlimit="10" stroke-linejoin="round"/>
<path d="M202.094 45.8399C202.094 59.2591 231.74 65.9696 261.386 72.6783C291.031 79.387 320.677 86.0937 320.677 99.5092" stroke="black" stroke-miterlimit="10" stroke-linejoin="round"/>
<path d="M320.677 144.808C320.677 177.985 282.354 194.575 244.032 211.162C205.709 227.748 167.386 244.331 167.386 277.501" stroke="black" stroke-miterlimit="10" stroke-linejoin="round"/>
<path d="M320.677 144.808C320.677 177.985 333.803 194.575 346.929 211.162C360.055 227.748 373.181 244.331 373.181 277.501" stroke="black" stroke-miterlimit="10" stroke-linejoin="round"/>
<path d="M522.374 167.603C522.706 166.844 522.361 165.959 521.603 165.626L509.24 160.203C508.481 159.87 507.596 160.215 507.264 160.974C506.931 161.733 507.276 162.617 508.035 162.95L519.024 167.771L514.203 178.76C513.87 179.519 514.215 180.404 514.974 180.736C515.733 181.069 516.617 180.724 516.95 179.965L522.374 167.603ZM257.545 271.397L521.545 168.397L520.455 165.603L256.455 268.603L257.545 271.397Z" fill="#FF0000"/>
<path d="M302.102 29.4234C301.834 28.7756 302.113 28.0204 302.725 27.7362L312.716 23.1083C313.329 22.8241 314.045 23.1185 314.313 23.7662C314.582 24.414 314.303 25.1684 313.69 25.4525L304.809 29.5667L308.705 38.9446C308.974 39.5923 308.696 40.3476 308.082 40.6309C307.469 40.9151 306.755 40.6207 306.485 39.9729L302.102 29.4234ZM516.119 118L302.772 30.101L303.653 27.7166L517 115.616L516.119 118Z" fill="#8F00FF"/>
<path d="M614.914 13.0156C614.914 12.5729 614.758 12.2344 614.445 12C614.133 11.7604 613.57 11.5104 612.758 11.25C611.945 10.9844 611.302 10.724 610.828 10.4688C609.536 9.77083 608.891 8.83073 608.891 7.64844C608.891 7.03385 609.062 6.48698 609.406 6.00781C609.755 5.52344 610.253 5.14583 610.898 4.875C611.549 4.60417 612.279 4.46875 613.086 4.46875C613.898 4.46875 614.622 4.61719 615.258 4.91406C615.893 5.20573 616.385 5.61979 616.734 6.15625C617.089 6.69271 617.266 7.30208 617.266 7.98438H614.922C614.922 7.46354 614.758 7.0599 614.43 6.77344C614.102 6.48177 613.641 6.33594 613.047 6.33594C612.474 6.33594 612.029 6.45833 611.711 6.70312C611.393 6.94271 611.234 7.26042 611.234 7.65625C611.234 8.02604 611.419 8.33594 611.789 8.58594C612.164 8.83594 612.714 9.07031 613.438 9.28906C614.771 9.6901 615.742 10.1875 616.352 10.7812C616.961 11.375 617.266 12.1146 617.266 13C617.266 13.9844 616.893 14.7578 616.148 15.3203C615.404 15.8776 614.401 16.1562 613.141 16.1562C612.266 16.1562 611.469 15.9974 610.75 15.6797C610.031 15.3568 609.482 14.9167 609.102 14.3594C608.727 13.8021 608.539 13.1562 608.539 12.4219H610.891C610.891 13.6771 611.641 14.3047 613.141 14.3047C613.698 14.3047 614.133 14.1927 614.445 13.9688C614.758 13.7396 614.914 13.4219 614.914 13.0156ZM623.773 15.1406C623.216 15.8177 622.445 16.1562 621.461 16.1562C620.555 16.1562 619.862 15.8958 619.383 15.375C618.909 14.8542 618.667 14.0911 618.656 13.0859V7.54688H620.914V13.0078C620.914 13.888 621.315 14.3281 622.117 14.3281C622.883 14.3281 623.409 14.0625 623.695 13.5312V7.54688H625.961V16H623.836L623.773 15.1406ZM635.281 11.8516C635.281 13.2057 634.992 14.263 634.414 15.0234C633.836 15.7786 633.029 16.1562 631.992 16.1562C631.076 16.1562 630.344 15.8047 629.797 15.1016L629.695 16H627.664V4H629.922V8.30469C630.443 7.69531 631.128 7.39062 631.977 7.39062C633.008 7.39062 633.815 7.77083 634.398 8.53125C634.987 9.28646 635.281 10.3516 635.281 11.7266V11.8516ZM633.023 11.6875C633.023 10.8333 632.888 10.2109 632.617 9.82031C632.346 9.42448 631.943 9.22656 631.406 9.22656C630.688 9.22656 630.193 9.52083 629.922 10.1094V13.4453C630.198 14.0391 630.698 14.3359 631.422 14.3359C632.151 14.3359 632.63 13.9766 632.859 13.2578C632.969 12.9141 633.023 12.3906 633.023 11.6875ZM641.258 13.6641C641.258 13.388 641.12 13.1719 640.844 13.0156C640.573 12.8542 640.135 12.7109 639.531 12.5859C637.521 12.1641 636.516 11.3099 636.516 10.0234C636.516 9.27344 636.826 8.64844 637.445 8.14844C638.07 7.64323 638.885 7.39062 639.891 7.39062C640.964 7.39062 641.82 7.64323 642.461 8.14844C643.107 8.65365 643.43 9.3099 643.43 10.1172H641.172C641.172 9.79427 641.068 9.52865 640.859 9.32031C640.651 9.10677 640.326 9 639.883 9C639.503 9 639.208 9.08594 639 9.25781C638.792 9.42969 638.688 9.64844 638.688 9.91406C638.688 10.1641 638.805 10.3672 639.039 10.5234C639.279 10.6745 639.68 10.8073 640.242 10.9219C640.805 11.0312 641.279 11.1562 641.664 11.2969C642.857 11.7344 643.453 12.4922 643.453 13.5703C643.453 14.3411 643.122 14.9661 642.461 15.4453C641.799 15.9193 640.945 16.1562 639.898 16.1562C639.19 16.1562 638.56 16.0312 638.008 15.7812C637.461 15.526 637.031 15.1797 636.719 14.7422C636.406 14.2995 636.25 13.8229 636.25 13.3125H638.391C638.411 13.7135 638.56 14.0208 638.836 14.2344C639.112 14.4479 639.482 14.5547 639.945 14.5547C640.378 14.5547 640.703 14.474 640.922 14.3125C641.146 14.1458 641.258 13.9297 641.258 13.6641ZM648.43 14.3359C648.846 14.3359 649.185 14.2214 649.445 13.9922C649.706 13.763 649.841 13.4583 649.852 13.0781H651.969C651.964 13.651 651.807 14.1771 651.5 14.6562C651.193 15.1302 650.771 15.5 650.234 15.7656C649.703 16.026 649.115 16.1562 648.469 16.1562C647.26 16.1562 646.307 15.7734 645.609 15.0078C644.911 14.237 644.562 13.1745 644.562 11.8203V11.6719C644.562 10.3698 644.909 9.33073 645.602 8.55469C646.294 7.77865 647.245 7.39062 648.453 7.39062C649.51 7.39062 650.357 7.69271 650.992 8.29688C651.633 8.89583 651.958 9.69531 651.969 10.6953H649.852C649.841 10.2578 649.706 9.90365 649.445 9.63281C649.185 9.35677 648.841 9.21875 648.414 9.21875C647.888 9.21875 647.49 9.41146 647.219 9.79688C646.953 10.1771 646.82 10.7969 646.82 11.6562V11.8906C646.82 12.7604 646.953 13.3854 647.219 13.7656C647.484 14.1458 647.888 14.3359 648.43 14.3359ZM658.008 9.66406C657.701 9.6224 657.43 9.60156 657.195 9.60156C656.341 9.60156 655.781 9.89062 655.516 10.4688V16H653.258V7.54688H655.391L655.453 8.55469C655.906 7.77865 656.534 7.39062 657.336 7.39062C657.586 7.39062 657.82 7.42448 658.039 7.49219L658.008 9.66406ZM661.484 16H659.219V7.54688H661.484V16ZM659.086 5.35938C659.086 5.02083 659.198 4.74219 659.422 4.52344C659.651 4.30469 659.961 4.19531 660.352 4.19531C660.737 4.19531 661.044 4.30469 661.273 4.52344C661.503 4.74219 661.617 5.02083 661.617 5.35938C661.617 5.70312 661.5 5.98438 661.266 6.20312C661.036 6.42188 660.732 6.53125 660.352 6.53125C659.971 6.53125 659.664 6.42188 659.43 6.20312C659.201 5.98438 659.086 5.70312 659.086 5.35938ZM670.969 11.8516C670.969 13.2057 670.68 14.263 670.102 15.0234C669.523 15.7786 668.716 16.1562 667.68 16.1562C666.763 16.1562 666.031 15.8047 665.484 15.1016L665.383 16H663.352V4H665.609V8.30469C666.13 7.69531 666.815 7.39062 667.664 7.39062C668.695 7.39062 669.503 7.77083 670.086 8.53125C670.674 9.28646 670.969 10.3516 670.969 11.7266V11.8516ZM668.711 11.6875C668.711 10.8333 668.576 10.2109 668.305 9.82031C668.034 9.42448 667.63 9.22656 667.094 9.22656C666.375 9.22656 665.88 9.52083 665.609 10.1094V13.4453C665.885 14.0391 666.385 14.3359 667.109 14.3359C667.839 14.3359 668.318 13.9766 668.547 13.2578C668.656 12.9141 668.711 12.3906 668.711 11.6875ZM676.258 16.1562C675.018 16.1562 674.008 15.776 673.227 15.0156C672.451 14.2552 672.062 13.2422 672.062 11.9766V11.7578C672.062 10.9089 672.227 10.151 672.555 9.48438C672.883 8.8125 673.346 8.29688 673.945 7.9375C674.549 7.57292 675.237 7.39062 676.008 7.39062C677.164 7.39062 678.073 7.75521 678.734 8.48438C679.401 9.21354 679.734 10.2474 679.734 11.5859V12.5078H674.352C674.424 13.0599 674.643 13.5026 675.008 13.8359C675.378 14.1693 675.844 14.3359 676.406 14.3359C677.276 14.3359 677.956 14.0208 678.445 13.3906L679.555 14.6328C679.216 15.112 678.758 15.487 678.18 15.7578C677.602 16.0234 676.961 16.1562 676.258 16.1562ZM676 9.21875C675.552 9.21875 675.188 9.36979 674.906 9.67188C674.63 9.97396 674.453 10.4062 674.375 10.9688H677.516V10.7891C677.505 10.2891 677.37 9.90365 677.109 9.63281C676.849 9.35677 676.479 9.21875 676 9.21875Z" fill="#8F00FF"/>
<path d="M628.438 28.6562H624.328L623.547 31H621.055L625.289 19.625H627.461L631.719 31H629.227L628.438 28.6562ZM624.961 26.7578H627.805L626.375 22.5L624.961 26.7578ZM636.148 29.3359C636.565 29.3359 636.904 29.2214 637.164 28.9922C637.424 28.763 637.56 28.4583 637.57 28.0781H639.688C639.682 28.651 639.526 29.1771 639.219 29.6562C638.911 30.1302 638.49 30.5 637.953 30.7656C637.422 31.026 636.833 31.1562 636.188 31.1562C634.979 31.1562 634.026 30.7734 633.328 30.0078C632.63 29.237 632.281 28.1745 632.281 26.8203V26.6719C632.281 25.3698 632.628 24.3307 633.32 23.5547C634.013 22.7786 634.964 22.3906 636.172 22.3906C637.229 22.3906 638.076 22.6927 638.711 23.2969C639.352 23.8958 639.677 24.6953 639.688 25.6953H637.57C637.56 25.2578 637.424 24.9036 637.164 24.6328C636.904 24.3568 636.56 24.2188 636.133 24.2188C635.607 24.2188 635.208 24.4115 634.938 24.7969C634.672 25.1771 634.539 25.7969 634.539 26.6562V26.8906C634.539 27.7604 634.672 28.3854 634.938 28.7656C635.203 29.1458 635.607 29.3359 636.148 29.3359ZM643.68 20.4688V22.5469H645.125V24.2031H643.68V28.4219C643.68 28.7344 643.74 28.9583 643.859 29.0938C643.979 29.2292 644.208 29.2969 644.547 29.2969C644.797 29.2969 645.018 29.2786 645.211 29.2422V30.9531C644.768 31.0885 644.312 31.1562 643.844 31.1562C642.26 31.1562 641.453 30.3568 641.422 28.7578V24.2031H640.188V22.5469H641.422V20.4688H643.68ZM648.766 31H646.5V22.5469H648.766V31ZM646.367 20.3594C646.367 20.0208 646.479 19.7422 646.703 19.5234C646.932 19.3047 647.242 19.1953 647.633 19.1953C648.018 19.1953 648.326 19.3047 648.555 19.5234C648.784 19.7422 648.898 20.0208 648.898 20.3594C648.898 20.7031 648.781 20.9844 648.547 21.2031C648.318 21.4219 648.013 21.5312 647.633 21.5312C647.253 21.5312 646.945 21.4219 646.711 21.2031C646.482 20.9844 646.367 20.7031 646.367 20.3594ZM650.281 26.6953C650.281 25.8568 650.443 25.1094 650.766 24.4531C651.089 23.7969 651.552 23.2891 652.156 22.9297C652.766 22.5703 653.471 22.3906 654.273 22.3906C655.414 22.3906 656.344 22.7396 657.062 23.4375C657.786 24.1354 658.19 25.0833 658.273 26.2812L658.289 26.8594C658.289 28.1562 657.927 29.1979 657.203 29.9844C656.479 30.7656 655.508 31.1562 654.289 31.1562C653.07 31.1562 652.096 30.7656 651.367 29.9844C650.643 29.2031 650.281 28.1406 650.281 26.7969V26.6953ZM652.539 26.8594C652.539 27.6615 652.69 28.276 652.992 28.7031C653.294 29.125 653.727 29.3359 654.289 29.3359C654.836 29.3359 655.263 29.1276 655.57 28.7109C655.878 28.2891 656.031 27.6172 656.031 26.6953C656.031 25.9089 655.878 25.2995 655.57 24.8672C655.263 24.4349 654.831 24.2188 654.273 24.2188C653.721 24.2188 653.294 24.4349 652.992 24.8672C652.69 25.2943 652.539 25.9583 652.539 26.8594ZM661.758 22.5469L661.828 23.5234C662.432 22.7682 663.242 22.3906 664.258 22.3906C665.154 22.3906 665.82 22.6536 666.258 23.1797C666.695 23.7057 666.919 24.4922 666.93 25.5391V31H664.672V25.5938C664.672 25.1146 664.568 24.7682 664.359 24.5547C664.151 24.3359 663.805 24.2266 663.32 24.2266C662.685 24.2266 662.208 24.4974 661.891 25.0391V31H659.633V22.5469H661.758Z" fill="#FF0000"/>
<path d="M683.5 117.5H532.5V161.5H683.5V117.5Z" fill="#FF0000" stroke="black"/>
<path d="M592.643 142.27C592.643 141.716 592.447 141.293 592.057 141C591.666 140.701 590.963 140.388 589.947 140.062C588.932 139.73 588.128 139.405 587.535 139.086C585.921 138.214 585.113 137.038 585.113 135.561C585.113 134.792 585.328 134.109 585.758 133.51C586.194 132.904 586.816 132.432 587.623 132.094C588.437 131.755 589.348 131.586 590.357 131.586C591.373 131.586 592.278 131.771 593.072 132.143C593.867 132.507 594.482 133.025 594.918 133.695C595.361 134.366 595.582 135.128 595.582 135.98H592.652C592.652 135.329 592.447 134.825 592.037 134.467C591.627 134.102 591.051 133.92 590.309 133.92C589.592 133.92 589.036 134.073 588.639 134.379C588.242 134.678 588.043 135.076 588.043 135.57C588.043 136.033 588.274 136.42 588.736 136.732C589.205 137.045 589.892 137.338 590.797 137.611C592.464 138.113 593.678 138.734 594.439 139.477C595.201 140.219 595.582 141.143 595.582 142.25C595.582 143.48 595.117 144.447 594.186 145.15C593.255 145.847 592.001 146.195 590.426 146.195C589.332 146.195 588.336 145.997 587.438 145.6C586.539 145.196 585.852 144.646 585.377 143.949C584.908 143.253 584.674 142.445 584.674 141.527H587.613C587.613 143.096 588.551 143.881 590.426 143.881C591.122 143.881 591.666 143.741 592.057 143.461C592.447 143.174 592.643 142.777 592.643 142.27ZM600.768 132.836V135.434H602.574V137.504H600.768V142.777C600.768 143.168 600.842 143.448 600.992 143.617C601.142 143.786 601.428 143.871 601.852 143.871C602.164 143.871 602.441 143.848 602.682 143.803V145.941C602.128 146.111 601.559 146.195 600.973 146.195C598.993 146.195 597.984 145.196 597.945 143.197V137.504H596.402V135.434H597.945V132.836H600.768ZM603.414 140.619C603.414 139.571 603.616 138.637 604.02 137.816C604.423 136.996 605.003 136.361 605.758 135.912C606.52 135.463 607.402 135.238 608.404 135.238C609.83 135.238 610.992 135.674 611.891 136.547C612.796 137.419 613.3 138.604 613.404 140.102L613.424 140.824C613.424 142.445 612.971 143.747 612.066 144.73C611.161 145.707 609.947 146.195 608.424 146.195C606.9 146.195 605.683 145.707 604.771 144.73C603.867 143.754 603.414 142.426 603.414 140.746V140.619ZM606.236 140.824C606.236 141.827 606.425 142.595 606.803 143.129C607.18 143.656 607.721 143.92 608.424 143.92C609.107 143.92 609.641 143.66 610.025 143.139C610.41 142.611 610.602 141.771 610.602 140.619C610.602 139.636 610.41 138.874 610.025 138.334C609.641 137.794 609.101 137.523 608.404 137.523C607.714 137.523 607.18 137.794 606.803 138.334C606.425 138.868 606.236 139.698 606.236 140.824ZM621.1 138.08C620.715 138.028 620.377 138.002 620.084 138.002C619.016 138.002 618.316 138.363 617.984 139.086V146H615.162V135.434H617.828L617.906 136.693C618.473 135.723 619.257 135.238 620.26 135.238C620.572 135.238 620.865 135.281 621.139 135.365L621.1 138.08ZM627.135 146.195C625.585 146.195 624.322 145.72 623.346 144.77C622.376 143.819 621.891 142.553 621.891 140.971V140.697C621.891 139.636 622.096 138.689 622.506 137.855C622.916 137.016 623.495 136.371 624.244 135.922C624.999 135.466 625.859 135.238 626.822 135.238C628.268 135.238 629.404 135.694 630.23 136.605C631.064 137.517 631.48 138.809 631.48 140.482V141.635H624.752C624.843 142.325 625.117 142.878 625.572 143.295C626.035 143.712 626.617 143.92 627.32 143.92C628.408 143.92 629.257 143.526 629.869 142.738L631.256 144.291C630.833 144.89 630.26 145.359 629.537 145.697C628.814 146.029 628.014 146.195 627.135 146.195ZM626.812 137.523C626.253 137.523 625.797 137.712 625.445 138.09C625.1 138.467 624.879 139.008 624.781 139.711H628.707V139.486C628.694 138.861 628.525 138.38 628.199 138.041C627.874 137.696 627.411 137.523 626.812 137.523Z" fill="black"/>
</svg>
