<svg width="451" height="324" viewBox="0 0 451 324" fill="none" xmlns="http://www.w3.org/2000/svg">
<path fill-rule="evenodd" clip-rule="evenodd" d="M125.449 0.548553H278.74V45.8399H125.449V0.548553Z" fill="#CFE2F3"/>
<path fill-rule="evenodd" clip-rule="evenodd" d="M125.449 0.548553H278.74V45.8399H125.449V0.548553Z" stroke="black" stroke-miterlimit="10" stroke-linejoin="round"/>
<path d="M186 27.5938L191.234 14H193.172L198.734 27.5938H196.688L195.094 23.4688H189.406L187.922 27.5938H186ZM189.922 22.0156H194.531L193.125 18.2344C192.688 17.099 192.365 16.1615 192.156 15.4219C191.979 16.2969 191.734 17.1615 191.422 18.0156L189.922 22.0156ZM199.725 31.375V17.7344H201.256V19.0156C201.61 18.5156 202.011 18.1406 202.459 17.8906C202.918 17.6406 203.464 17.5156 204.1 17.5156C204.944 17.5156 205.688 17.7344 206.334 18.1719C206.98 18.599 207.464 19.2083 207.787 20C208.121 20.7917 208.287 21.6562 208.287 22.5938C208.287 23.6042 208.105 24.5156 207.74 25.3281C207.376 26.1302 206.85 26.7448 206.162 27.1719C205.475 27.599 204.751 27.8125 203.99 27.8125C203.428 27.8125 202.923 27.6979 202.475 27.4688C202.037 27.2292 201.678 26.9323 201.397 26.5781V31.375H199.725ZM201.24 22.7188C201.24 23.9896 201.496 24.9271 202.006 25.5312C202.527 26.1354 203.152 26.4375 203.881 26.4375C204.621 26.4375 205.251 26.125 205.772 25.5C206.303 24.875 206.569 23.901 206.569 22.5781C206.569 21.3281 206.308 20.3906 205.787 19.7656C205.277 19.1406 204.662 18.8281 203.944 18.8281C203.235 18.8281 202.605 19.1615 202.053 19.8281C201.511 20.4948 201.24 21.4583 201.24 22.7188ZM210.101 31.375V17.7344H211.632V19.0156C211.986 18.5156 212.387 18.1406 212.835 17.8906C213.293 17.6406 213.84 17.5156 214.476 17.5156C215.319 17.5156 216.064 17.7344 216.71 18.1719C217.356 18.599 217.84 19.2083 218.163 20C218.496 20.7917 218.663 21.6562 218.663 22.5938C218.663 23.6042 218.481 24.5156 218.116 25.3281C217.752 26.1302 217.226 26.7448 216.538 27.1719C215.851 27.599 215.127 27.8125 214.366 27.8125C213.804 27.8125 213.298 27.6979 212.851 27.4688C212.413 27.2292 212.054 26.9323 211.772 26.5781V31.375H210.101ZM211.616 22.7188C211.616 23.9896 211.871 24.9271 212.382 25.5312C212.903 26.1354 213.528 26.4375 214.257 26.4375C214.996 26.4375 215.627 26.125 216.147 25.5C216.679 24.875 216.944 23.901 216.944 22.5781C216.944 21.3281 216.684 20.3906 216.163 19.7656C215.653 19.1406 215.038 18.8281 214.319 18.8281C213.611 18.8281 212.981 19.1615 212.429 19.8281C211.887 20.4948 211.616 21.4583 211.616 22.7188Z" fill="black"/>
<path fill-rule="evenodd" clip-rule="evenodd" d="M90.7402 277.514H244.032V322.806H90.7402V277.514Z" fill="#CFE2F3"/>
<path fill-rule="evenodd" clip-rule="evenodd" d="M90.7402 277.514H244.032V322.806H90.7402V277.514Z" stroke="black" stroke-miterlimit="10" stroke-linejoin="round"/>
<path d="M132.905 307.08V295.08H128.436V293.486H139.201V295.08H134.701V307.08H132.905ZM140.004 302.158C140.004 300.335 140.514 298.981 141.535 298.096C142.379 297.367 143.41 297.002 144.629 297.002C145.983 297.002 147.087 297.45 147.941 298.346C148.806 299.231 149.238 300.455 149.238 302.018C149.238 303.288 149.045 304.288 148.66 305.018C148.285 305.736 147.733 306.299 147.004 306.705C146.285 307.101 145.493 307.299 144.629 307.299C143.254 307.299 142.139 306.856 141.285 305.971C140.431 305.085 140.004 303.814 140.004 302.158ZM141.722 302.158C141.722 303.419 141.998 304.361 142.551 304.986C143.103 305.611 143.795 305.924 144.629 305.924C145.462 305.924 146.149 305.611 146.691 304.986C147.243 304.351 147.519 303.387 147.519 302.096C147.519 300.877 147.243 299.955 146.691 299.33C146.139 298.705 145.452 298.393 144.629 298.393C143.795 298.393 143.103 298.705 142.551 299.33C141.998 299.955 141.722 300.898 141.722 302.158ZM157.395 307.08V305.83C156.77 306.809 155.853 307.299 154.645 307.299C153.864 307.299 153.14 307.085 152.473 306.658C151.817 306.221 151.306 305.617 150.942 304.846C150.588 304.064 150.411 303.169 150.411 302.158C150.411 301.179 150.572 300.288 150.895 299.486C151.228 298.684 151.718 298.07 152.364 297.643C153.02 297.216 153.754 297.002 154.567 297.002C155.161 297.002 155.687 297.127 156.145 297.377C156.614 297.627 156.994 297.955 157.286 298.361V293.486H158.942V307.08H157.395ZM152.114 302.158C152.114 303.419 152.379 304.361 152.911 304.986C153.452 305.611 154.082 305.924 154.801 305.924C155.53 305.924 156.15 305.627 156.661 305.033C157.171 304.439 157.426 303.528 157.426 302.299C157.426 300.955 157.166 299.971 156.645 299.346C156.124 298.71 155.484 298.393 154.723 298.393C153.984 298.393 153.364 298.695 152.864 299.299C152.364 299.903 152.114 300.856 152.114 302.158ZM160.755 302.158C160.755 300.335 161.265 298.981 162.286 298.096C163.13 297.367 164.161 297.002 165.38 297.002C166.734 297.002 167.838 297.45 168.693 298.346C169.557 299.231 169.989 300.455 169.989 302.018C169.989 303.288 169.797 304.288 169.411 305.018C169.036 305.736 168.484 306.299 167.755 306.705C167.036 307.101 166.245 307.299 165.38 307.299C164.005 307.299 162.89 306.856 162.036 305.971C161.182 305.085 160.755 303.814 160.755 302.158ZM162.474 302.158C162.474 303.419 162.75 304.361 163.302 304.986C163.854 305.611 164.547 305.924 165.38 305.924C166.213 305.924 166.901 305.611 167.443 304.986C167.995 304.351 168.271 303.387 168.271 302.096C168.271 300.877 167.995 299.955 167.443 299.33C166.89 298.705 166.203 298.393 165.38 298.393C164.547 298.393 163.854 298.705 163.302 299.33C162.75 299.955 162.474 300.898 162.474 302.158ZM172.271 307.08V293.486H174.084V307.08H172.271ZM180.595 305.58L180.83 307.064C180.361 307.158 179.939 307.205 179.564 307.205C178.96 307.205 178.491 307.111 178.158 306.924C177.825 306.726 177.59 306.476 177.455 306.174C177.319 305.861 177.252 305.2 177.252 304.189V298.533H176.017V297.221H177.252V294.783L178.908 293.783V297.221H180.595V298.533H178.908V304.283C178.908 304.762 178.934 305.07 178.986 305.205C179.048 305.341 179.147 305.45 179.283 305.533C179.418 305.617 179.611 305.658 179.861 305.658C180.038 305.658 180.283 305.632 180.595 305.58ZM188.872 303.908L190.591 304.127C190.32 305.127 189.815 305.908 189.076 306.471C188.346 307.023 187.409 307.299 186.263 307.299C184.826 307.299 183.685 306.856 182.841 305.971C181.997 305.085 181.576 303.841 181.576 302.236C181.576 300.58 181.997 299.294 182.841 298.377C183.695 297.46 184.805 297.002 186.169 297.002C187.492 297.002 188.57 297.45 189.404 298.346C190.237 299.242 190.654 300.507 190.654 302.143C190.654 302.236 190.648 302.382 190.638 302.58H183.294C183.357 303.663 183.664 304.492 184.216 305.064C184.768 305.637 185.456 305.924 186.279 305.924C186.883 305.924 187.398 305.768 187.826 305.455C188.263 305.132 188.612 304.617 188.872 303.908ZM183.388 301.205H188.888C188.815 300.382 188.607 299.762 188.263 299.346C187.732 298.7 187.039 298.377 186.185 298.377C185.424 298.377 184.779 298.637 184.247 299.158C183.727 299.669 183.44 300.351 183.388 301.205ZM192.498 307.08V297.221H193.998V298.611C194.3 298.132 194.706 297.747 195.217 297.455C195.738 297.153 196.326 297.002 196.982 297.002C197.712 297.002 198.311 297.153 198.779 297.455C199.248 297.757 199.576 298.184 199.764 298.736C200.545 297.58 201.561 297.002 202.811 297.002C203.79 297.002 204.54 297.273 205.061 297.814C205.592 298.356 205.857 299.189 205.857 300.314V307.08H204.186V300.877C204.186 300.21 204.134 299.731 204.029 299.439C203.925 299.137 203.727 298.898 203.436 298.721C203.154 298.544 202.821 298.455 202.436 298.455C201.748 298.455 201.175 298.684 200.717 299.143C200.259 299.601 200.029 300.341 200.029 301.361V307.08H198.357V300.674C198.357 299.934 198.222 299.382 197.951 299.018C197.68 298.643 197.232 298.455 196.607 298.455C196.139 298.455 195.701 298.58 195.295 298.83C194.899 299.07 194.613 299.429 194.436 299.908C194.259 300.387 194.17 301.075 194.17 301.971V307.08H192.498Z" fill="black"/>
<path fill-rule="evenodd" clip-rule="evenodd" d="M0.934448 99.5171H154.226V144.808H0.934448V99.5171Z" fill="#CFE2F3"/>
<path fill-rule="evenodd" clip-rule="evenodd" d="M0.934448 99.5171H154.226V144.808H0.934448V99.5171Z" stroke="black" stroke-miterlimit="10" stroke-linejoin="round"/>
<path d="M40.5116 129.083V117.083H36.0428V115.489H46.8085V117.083H42.3085V129.083H40.5116ZM47.6107 124.161C47.6107 122.338 48.1211 120.984 49.142 120.098C49.9857 119.369 51.017 119.005 52.2357 119.005C53.5899 119.005 54.694 119.453 55.5482 120.348C56.4128 121.234 56.8451 122.458 56.8451 124.02C56.8451 125.291 56.6524 126.291 56.267 127.02C55.892 127.739 55.3399 128.301 54.6107 128.708C53.892 129.104 53.1003 129.301 52.2357 129.301C50.8607 129.301 49.7461 128.859 48.892 127.973C48.0378 127.088 47.6107 125.817 47.6107 124.161ZM49.3295 124.161C49.3295 125.421 49.6055 126.364 50.1576 126.989C50.7097 127.614 51.4024 127.926 52.2357 127.926C53.069 127.926 53.7565 127.614 54.2982 126.989C54.8503 126.354 55.1263 125.39 55.1263 124.098C55.1263 122.88 54.8503 121.958 54.2982 121.333C53.7461 120.708 53.0586 120.395 52.2357 120.395C51.4024 120.395 50.7097 120.708 50.1576 121.333C49.6055 121.958 49.3295 122.9 49.3295 124.161ZM65.002 129.083V127.833C64.377 128.812 63.4604 129.301 62.252 129.301C61.4708 129.301 60.7468 129.088 60.0802 128.661C59.4239 128.223 58.9135 127.619 58.5489 126.848C58.1947 126.067 58.0177 125.171 58.0177 124.161C58.0177 123.182 58.1791 122.291 58.502 121.489C58.8354 120.687 59.325 120.072 59.9708 119.645C60.627 119.218 61.3614 119.005 62.1739 119.005C62.7677 119.005 63.2937 119.13 63.752 119.38C64.2208 119.63 64.601 119.958 64.8927 120.364V115.489H66.5489V129.083H65.002ZM59.7208 124.161C59.7208 125.421 59.9864 126.364 60.5177 126.989C61.0593 127.614 61.6895 127.926 62.4083 127.926C63.1375 127.926 63.7572 127.63 64.2677 127.036C64.7781 126.442 65.0333 125.531 65.0333 124.301C65.0333 122.958 64.7729 121.973 64.252 121.348C63.7312 120.713 63.0906 120.395 62.3302 120.395C61.5906 120.395 60.9708 120.697 60.4708 121.301C59.9708 121.906 59.7208 122.859 59.7208 124.161ZM68.3621 124.161C68.3621 122.338 68.8726 120.984 69.8934 120.098C70.7371 119.369 71.7684 119.005 72.9871 119.005C74.3413 119.005 75.4455 119.453 76.2996 120.348C77.1642 121.234 77.5965 122.458 77.5965 124.02C77.5965 125.291 77.4038 126.291 77.0184 127.02C76.6434 127.739 76.0913 128.301 75.3621 128.708C74.6434 129.104 73.8517 129.301 72.9871 129.301C71.6121 129.301 70.4976 128.859 69.6434 127.973C68.7892 127.088 68.3621 125.817 68.3621 124.161ZM70.0809 124.161C70.0809 125.421 70.3569 126.364 70.909 126.989C71.4611 127.614 72.1538 127.926 72.9871 127.926C73.8205 127.926 74.508 127.614 75.0496 126.989C75.6017 126.354 75.8778 125.39 75.8778 124.098C75.8778 122.88 75.6017 121.958 75.0496 121.333C74.4976 120.708 73.8101 120.395 72.9871 120.395C72.1538 120.395 71.4611 120.708 70.909 121.333C70.3569 121.958 70.0809 122.9 70.0809 124.161ZM79.6753 129.083V115.489H88.8472V117.083H81.4722V121.301H87.8472V122.911H81.4722V129.083H79.6753ZM90.7745 117.395V115.489H92.4463V117.395H90.7745ZM90.7745 129.083V119.223H92.4463V129.083H90.7745ZM94.8724 129.083V115.489H96.5443V129.083H94.8724ZM102.705 127.583L102.939 129.067C102.47 129.161 102.048 129.208 101.673 129.208C101.069 129.208 100.601 129.114 100.267 128.926C99.9339 128.729 99.6995 128.479 99.5641 128.176C99.4287 127.864 99.361 127.203 99.361 126.192V120.536H98.1266V119.223H99.361V116.786L101.017 115.786V119.223H102.705V120.536H101.017V126.286C101.017 126.765 101.043 127.072 101.095 127.208C101.158 127.343 101.257 127.453 101.392 127.536C101.528 127.619 101.72 127.661 101.97 127.661C102.147 127.661 102.392 127.635 102.705 127.583ZM110.982 125.911L112.701 126.13C112.43 127.13 111.924 127.911 111.185 128.473C110.456 129.025 109.518 129.301 108.372 129.301C106.935 129.301 105.794 128.859 104.951 127.973C104.107 127.088 103.685 125.843 103.685 124.239C103.685 122.583 104.107 121.296 104.951 120.38C105.805 119.463 106.914 119.005 108.279 119.005C109.602 119.005 110.68 119.453 111.513 120.348C112.346 121.244 112.763 122.51 112.763 124.145C112.763 124.239 112.758 124.385 112.747 124.583H105.404C105.466 125.666 105.773 126.494 106.326 127.067C106.878 127.64 107.565 127.926 108.388 127.926C108.992 127.926 109.508 127.77 109.935 127.458C110.372 127.135 110.721 126.619 110.982 125.911ZM105.497 123.208H110.997C110.924 122.385 110.716 121.765 110.372 121.348C109.841 120.703 109.148 120.38 108.294 120.38C107.534 120.38 106.888 120.64 106.357 121.161C105.836 121.671 105.549 122.354 105.497 123.208ZM114.592 129.083V119.223H116.092V120.723C116.477 120.025 116.831 119.567 117.154 119.348C117.477 119.119 117.837 119.005 118.232 119.005C118.795 119.005 119.368 119.187 119.951 119.551L119.373 121.098C118.967 120.859 118.555 120.739 118.139 120.739C117.774 120.739 117.446 120.848 117.154 121.067C116.873 121.286 116.67 121.588 116.545 121.973C116.357 122.567 116.264 123.218 116.264 123.926V129.083H114.592Z" fill="black"/>
<path fill-rule="evenodd" clip-rule="evenodd" d="M296.546 277.514H449.837V322.806H296.546V277.514Z" fill="#CFE2F3"/>
<path fill-rule="evenodd" clip-rule="evenodd" d="M296.546 277.514H449.837V322.806H296.546V277.514Z" stroke="black" stroke-miterlimit="10" stroke-linejoin="round"/>
<path d="M338.71 307.08V295.08H334.242V293.486H345.007V295.08H340.507V307.08H338.71ZM345.809 302.158C345.809 300.335 346.32 298.981 347.341 298.096C348.184 297.367 349.216 297.002 350.434 297.002C351.789 297.002 352.893 297.45 353.747 298.346C354.611 299.231 355.044 300.455 355.044 302.018C355.044 303.288 354.851 304.288 354.466 305.018C354.091 305.736 353.539 306.299 352.809 306.705C352.091 307.101 351.299 307.299 350.434 307.299C349.059 307.299 347.945 306.856 347.091 305.971C346.236 305.085 345.809 303.814 345.809 302.158ZM347.528 302.158C347.528 303.419 347.804 304.361 348.356 304.986C348.908 305.611 349.601 305.924 350.434 305.924C351.268 305.924 351.955 305.611 352.497 304.986C353.049 304.351 353.325 303.387 353.325 302.096C353.325 300.877 353.049 299.955 352.497 299.33C351.945 298.705 351.257 298.393 350.434 298.393C349.601 298.393 348.908 298.705 348.356 299.33C347.804 299.955 347.528 300.898 347.528 302.158ZM363.201 307.08V305.83C362.576 306.809 361.659 307.299 360.451 307.299C359.67 307.299 358.946 307.085 358.279 306.658C357.623 306.221 357.112 305.617 356.748 304.846C356.393 304.064 356.216 303.169 356.216 302.158C356.216 301.179 356.378 300.288 356.701 299.486C357.034 298.684 357.524 298.07 358.17 297.643C358.826 297.216 359.56 297.002 360.373 297.002C360.966 297.002 361.492 297.127 361.951 297.377C362.42 297.627 362.8 297.955 363.091 298.361V293.486H364.748V307.08H363.201ZM357.92 302.158C357.92 303.419 358.185 304.361 358.716 304.986C359.258 305.611 359.888 305.924 360.607 305.924C361.336 305.924 361.956 305.627 362.466 305.033C362.977 304.439 363.232 303.528 363.232 302.299C363.232 300.955 362.972 299.971 362.451 299.346C361.93 298.71 361.289 298.393 360.529 298.393C359.789 298.393 359.17 298.695 358.67 299.299C358.17 299.903 357.92 300.856 357.92 302.158ZM366.561 302.158C366.561 300.335 367.071 298.981 368.092 298.096C368.936 297.367 369.967 297.002 371.186 297.002C372.54 297.002 373.644 297.45 374.498 298.346C375.363 299.231 375.795 300.455 375.795 302.018C375.795 303.288 375.603 304.288 375.217 305.018C374.842 305.736 374.29 306.299 373.561 306.705C372.842 307.101 372.05 307.299 371.186 307.299C369.811 307.299 368.696 306.856 367.842 305.971C366.988 305.085 366.561 303.814 366.561 302.158ZM368.28 302.158C368.28 303.419 368.556 304.361 369.108 304.986C369.66 305.611 370.353 305.924 371.186 305.924C372.019 305.924 372.707 305.611 373.248 304.986C373.8 304.351 374.077 303.387 374.077 302.096C374.077 300.877 373.8 299.955 373.248 299.33C372.696 298.705 372.009 298.393 371.186 298.393C370.353 298.393 369.66 298.705 369.108 299.33C368.556 299.955 368.28 300.898 368.28 302.158ZM378.077 307.08V293.486H379.89V307.08H378.077ZM386.401 305.58L386.636 307.064C386.167 307.158 385.745 307.205 385.37 307.205C384.766 307.205 384.297 307.111 383.964 306.924C383.63 306.726 383.396 306.476 383.261 306.174C383.125 305.861 383.057 305.2 383.057 304.189V298.533H381.823V297.221H383.057V294.783L384.714 293.783V297.221H386.401V298.533H384.714V304.283C384.714 304.762 384.74 305.07 384.792 305.205C384.854 305.341 384.953 305.45 385.089 305.533C385.224 305.617 385.417 305.658 385.667 305.658C385.844 305.658 386.089 305.632 386.401 305.58ZM394.678 303.908L396.397 304.127C396.126 305.127 395.621 305.908 394.881 306.471C394.152 307.023 393.215 307.299 392.069 307.299C390.631 307.299 389.491 306.856 388.647 305.971C387.803 305.085 387.381 303.841 387.381 302.236C387.381 300.58 387.803 299.294 388.647 298.377C389.501 297.46 390.611 297.002 391.975 297.002C393.298 297.002 394.376 297.45 395.209 298.346C396.043 299.242 396.459 300.507 396.459 302.143C396.459 302.236 396.454 302.382 396.444 302.58H389.1C389.163 303.663 389.47 304.492 390.022 305.064C390.574 305.637 391.262 305.924 392.084 305.924C392.689 305.924 393.204 305.768 393.631 305.455C394.069 305.132 394.418 304.617 394.678 303.908ZM389.194 301.205H394.694C394.621 300.382 394.413 299.762 394.069 299.346C393.538 298.7 392.845 298.377 391.991 298.377C391.23 298.377 390.584 298.637 390.053 299.158C389.532 299.669 389.246 300.351 389.194 301.205ZM398.304 307.08V297.221H399.804V298.611C400.106 298.132 400.512 297.747 401.023 297.455C401.544 297.153 402.132 297.002 402.788 297.002C403.517 297.002 404.116 297.153 404.585 297.455C405.054 297.757 405.382 298.184 405.57 298.736C406.351 297.58 407.366 297.002 408.616 297.002C409.596 297.002 410.346 297.273 410.866 297.814C411.398 298.356 411.663 299.189 411.663 300.314V307.08H409.991V300.877C409.991 300.21 409.939 299.731 409.835 299.439C409.731 299.137 409.533 298.898 409.241 298.721C408.96 298.544 408.627 298.455 408.241 298.455C407.554 298.455 406.981 298.684 406.523 299.143C406.064 299.601 405.835 300.341 405.835 301.361V307.08H404.163V300.674C404.163 299.934 404.028 299.382 403.757 299.018C403.486 298.643 403.038 298.455 402.413 298.455C401.945 298.455 401.507 298.58 401.101 298.83C400.705 299.07 400.419 299.429 400.241 299.908C400.064 300.387 399.976 301.075 399.976 301.971V307.08H398.304Z" fill="black"/>
<path fill-rule="evenodd" clip-rule="evenodd" d="M244.032 99.5171H397.323V144.808H244.032V99.5171Z" fill="#CFE2F3"/>
<path fill-rule="evenodd" clip-rule="evenodd" d="M244.032 99.5171H397.323V144.808H244.032V99.5171Z" stroke="black" stroke-miterlimit="10" stroke-linejoin="round"/>
<path d="M289.821 129.083V117.083H285.353V115.489H296.118V117.083H291.618V129.083H289.821ZM296.921 124.161C296.921 122.338 297.431 120.984 298.452 120.098C299.296 119.369 300.327 119.005 301.546 119.005C302.9 119.005 304.004 119.453 304.858 120.348C305.723 121.234 306.155 122.458 306.155 124.02C306.155 125.291 305.962 126.291 305.577 127.02C305.202 127.739 304.65 128.301 303.921 128.708C303.202 129.104 302.41 129.301 301.546 129.301C300.171 129.301 299.056 128.859 298.202 127.973C297.348 127.088 296.921 125.817 296.921 124.161ZM298.639 124.161C298.639 125.421 298.915 126.364 299.467 126.989C300.02 127.614 300.712 127.926 301.546 127.926C302.379 127.926 303.066 127.614 303.608 126.989C304.16 126.354 304.436 125.39 304.436 124.098C304.436 122.88 304.16 121.958 303.608 121.333C303.056 120.708 302.369 120.395 301.546 120.395C300.712 120.395 300.02 120.708 299.467 121.333C298.915 121.958 298.639 122.9 298.639 124.161ZM314.312 129.083V127.833C313.687 128.812 312.77 129.301 311.562 129.301C310.781 129.301 310.057 129.088 309.39 128.661C308.734 128.223 308.223 127.619 307.859 126.848C307.505 126.067 307.328 125.171 307.328 124.161C307.328 123.182 307.489 122.291 307.812 121.489C308.145 120.687 308.635 120.072 309.281 119.645C309.937 119.218 310.671 119.005 311.484 119.005C312.078 119.005 312.604 119.13 313.062 119.38C313.531 119.63 313.911 119.958 314.203 120.364V115.489H315.859V129.083H314.312ZM309.031 124.161C309.031 125.421 309.296 126.364 309.828 126.989C310.369 127.614 310.999 127.926 311.718 127.926C312.447 127.926 313.067 127.63 313.578 127.036C314.088 126.442 314.343 125.531 314.343 124.301C314.343 122.958 314.083 121.973 313.562 121.348C313.041 120.713 312.4 120.395 311.64 120.395C310.9 120.395 310.281 120.697 309.781 121.301C309.281 121.906 309.031 122.859 309.031 124.161ZM317.672 124.161C317.672 122.338 318.182 120.984 319.203 120.098C320.047 119.369 321.078 119.005 322.297 119.005C323.651 119.005 324.755 119.453 325.61 120.348C326.474 121.234 326.906 122.458 326.906 124.02C326.906 125.291 326.714 126.291 326.328 127.02C325.953 127.739 325.401 128.301 324.672 128.708C323.953 129.104 323.162 129.301 322.297 129.301C320.922 129.301 319.807 128.859 318.953 127.973C318.099 127.088 317.672 125.817 317.672 124.161ZM319.391 124.161C319.391 125.421 319.667 126.364 320.219 126.989C320.771 127.614 321.464 127.926 322.297 127.926C323.13 127.926 323.818 127.614 324.36 126.989C324.912 126.354 325.188 125.39 325.188 124.098C325.188 122.88 324.912 121.958 324.36 121.333C323.807 120.708 323.12 120.395 322.297 120.395C321.464 120.395 320.771 120.708 320.219 121.333C319.667 121.958 319.391 122.9 319.391 124.161ZM328.813 129.083V115.489H330.61V127.473H337.313V129.083H328.813ZM339.064 117.395V115.489H340.736V117.395H339.064ZM339.064 129.083V119.223H340.736V129.083H339.064ZM342.521 126.145L344.178 125.88C344.271 126.546 344.527 127.057 344.943 127.411C345.37 127.755 345.964 127.926 346.725 127.926C347.495 127.926 348.063 127.77 348.428 127.458C348.803 127.145 348.99 126.781 348.99 126.364C348.99 125.989 348.829 125.692 348.506 125.473C348.277 125.328 347.709 125.14 346.803 124.911C345.574 124.598 344.719 124.333 344.24 124.114C343.771 123.885 343.412 123.572 343.162 123.176C342.922 122.77 342.803 122.328 342.803 121.848C342.803 121.411 342.902 121.005 343.1 120.63C343.308 120.255 343.584 119.942 343.928 119.692C344.188 119.505 344.542 119.343 344.99 119.208C345.438 119.072 345.917 119.005 346.428 119.005C347.209 119.005 347.891 119.119 348.475 119.348C349.058 119.567 349.485 119.869 349.756 120.255C350.037 120.63 350.23 121.135 350.334 121.77L348.709 121.989C348.636 121.489 348.417 121.098 348.053 120.817C347.699 120.525 347.199 120.38 346.553 120.38C345.782 120.38 345.235 120.51 344.912 120.77C344.589 121.02 344.428 121.312 344.428 121.645C344.428 121.864 344.495 122.062 344.631 122.239C344.766 122.416 344.98 122.562 345.271 122.676C345.438 122.739 345.928 122.885 346.74 123.114C347.917 123.426 348.74 123.682 349.209 123.88C349.678 124.078 350.042 124.369 350.303 124.755C350.574 125.14 350.709 125.619 350.709 126.192C350.709 126.744 350.547 127.27 350.225 127.77C349.902 128.26 349.433 128.64 348.818 128.911C348.204 129.171 347.511 129.301 346.74 129.301C345.459 129.301 344.48 129.036 343.803 128.505C343.136 127.973 342.709 127.187 342.521 126.145ZM356.178 127.583L356.412 129.067C355.943 129.161 355.521 129.208 355.146 129.208C354.542 129.208 354.074 129.114 353.74 128.926C353.407 128.729 353.172 128.479 353.037 128.176C352.902 127.864 352.834 127.203 352.834 126.192V120.536H351.6V119.223H352.834V116.786L354.49 115.786V119.223H356.178V120.536H354.49V126.286C354.49 126.765 354.516 127.072 354.568 127.208C354.631 127.343 354.73 127.453 354.865 127.536C355.001 127.619 355.193 127.661 355.443 127.661C355.62 127.661 355.865 127.635 356.178 127.583Z" fill="black"/>
<path d="M202.095 45.8399C202.095 59.2591 170.969 65.9696 139.843 72.6783C108.717 79.387 77.5906 86.0937 77.5906 99.5092" stroke="black" stroke-miterlimit="10" stroke-linejoin="round"/>
<path d="M202.094 45.8399C202.094 59.2591 231.74 65.9696 261.386 72.6783C291.031 79.387 320.677 86.0937 320.677 99.5092" stroke="black" stroke-miterlimit="10" stroke-linejoin="round"/>
<path d="M320.677 144.808C320.677 177.985 282.354 194.575 244.032 211.162C205.709 227.748 167.386 244.331 167.386 277.501" stroke="black" stroke-miterlimit="10" stroke-linejoin="round"/>
<path d="M320.677 144.808C320.677 177.985 333.803 194.575 346.929 211.162C360.055 227.748 373.181 244.331 373.181 277.501" stroke="black" stroke-miterlimit="10" stroke-linejoin="round"/>
</svg>
